<svg width="1436" height="1246" viewBox="0 0 1436 1246" fill="none" xmlns="http://www.w3.org/2000/svg">
<path d="M123.5 2.00001C110.19 77.6235 214.224 142.535 200.038 218C174.888 351.795 236.716 480.518 273.247 614.991C306.747 738.306 383.492 825.436 498.748 878.85C647.57 947.821 828.901 957.832 990.274 947.185C1125.1 938.291 1278.5 909.072 1384.23 818.445C1417.34 790.06 1439.67 749.223 1432.73 702.445C1424 643.536 1364.89 608.084 1318.03 584.195C1242.18 545.529 1161.65 507.385 1077.61 490.93C951.215 466.183 761.015 485 638.339 518.508C504.821 554.977 443.763 636.794 347.263 734.802C292.345 790.579 243.308 851.921 200.038 917.122C161.04 975.886 31.1458 1181.01 1.99999 1244.5" stroke="white" stroke-width="3" stroke-linecap="round" stroke-linejoin="round"/>
</svg>
