<svg width="1237" height="1311" viewBox="0 0 1237 1311" fill="none" xmlns="http://www.w3.org/2000/svg">
<path d="M795 1.5C758.288 44.0525 698.554 95.7255 647.649 119.553C576.134 153.029 508.641 196.021 436.168 226.797C357.564 260.177 274.794 286.775 194.369 315.499C158.699 328.238 122.026 338.299 85.8721 349.576C70.91 354.243 19.4614 370.323 6.69209 353.084C-22.2616 313.997 89.833 246.732 112.934 237.321C161.999 217.331 215.598 195.82 268.287 187.207C393.386 166.758 516.97 169.009 638.629 205.248C705.25 225.093 776.089 230.439 843.595 246.843C920.377 265.5 974.53 299.186 1033.03 351.831C1170.59 475.644 1235.49 662.266 1235.49 845.203C1235.49 937.264 1212.91 1041.15 1163.82 1119.83C1112.86 1201.51 947.384 1207.39 865 1254C807.339 1286.62 687.915 1254.37 599.5 1254C459.768 1253.41 342.069 1274.46 246.5 1316" stroke="white" stroke-width="3" stroke-linecap="round"/>
</svg>
